<svg width="32" height="32" viewBox="0 0 32 32" fill="none" xmlns="http://www.w3.org/2000/svg">
<path d="M12.2178 10.5322C12.2178 6.99805 8.90209 4.73616 8.76072 4.6462C8.5482 4.50255 8.29755 4.42579 8.04103 4.42579C7.78451 4.42579 7.53386 4.50255 7.32134 4.6462C7.17997 4.74901 3.86426 6.99805 3.86426 10.5322C3.86426 11.64 4.30431 12.7024 5.08761 13.4857C5.8709 14.269 6.93328 14.709 8.04103 14.709C9.14878 14.709 10.2112 14.269 10.9945 13.4857C11.7778 12.7024 12.2178 11.64 12.2178 10.5322ZM8.04103 12.1387C7.61497 12.1387 7.20637 11.9694 6.9051 11.6682C6.60383 11.3669 6.43458 10.9583 6.43458 10.5322C6.54034 9.31375 7.11655 8.18437 8.04103 7.38359C8.97102 8.18004 9.54847 9.31183 9.64748 10.5322C9.64748 10.9583 9.47823 11.3669 9.17696 11.6682C8.8757 11.9694 8.46709 12.1387 8.04103 12.1387ZM15.8291 13.6423C15.6166 13.4987 15.3659 13.4219 15.1094 13.4219C14.8529 13.4219 14.6023 13.4987 14.3897 13.6423C14.1712 13.7965 9.0049 17.3693 9.0049 22.7413C9.0049 24.3603 9.64806 25.913 10.7929 27.0578C11.9377 28.2026 13.4904 28.8458 15.1094 28.8458C16.7284 28.8458 18.2811 28.2026 19.426 27.0578C20.5708 25.913 21.2139 24.3603 21.2139 22.7413C21.2139 17.2793 16.0733 13.7837 15.8291 13.6423ZM15.1094 26.2755C14.6453 26.2755 14.1857 26.184 13.7569 26.0064C13.3282 25.8288 12.9385 25.5685 12.6104 25.2403C12.2822 24.9121 12.0219 24.5225 11.8442 24.0937C11.6666 23.665 11.5752 23.2054 11.5752 22.7413C11.5752 19.7725 13.9014 17.3821 15.1223 16.3155C16.3303 17.3307 18.6436 19.6954 18.6436 22.7413C18.6436 23.2054 18.5522 23.665 18.3746 24.0937C18.197 24.5225 17.9367 24.9121 17.6085 25.2403C17.2803 25.5685 16.8907 25.8288 16.4619 26.0064C16.0331 26.184 15.5735 26.2755 15.1094 26.2755ZM23.8614 3.36104C23.6488 3.21739 23.3982 3.14062 23.1417 3.14062C22.8852 3.14063 22.6345 3.21739 22.422 3.36104C22.2421 3.48956 18.001 6.41972 18.001 10.8535C18.001 12.2169 18.5426 13.5245 19.5067 14.4885C20.4707 15.4526 21.7783 15.9942 23.1417 15.9942C24.5051 15.9942 25.8126 15.4526 26.7767 14.4885C27.7407 13.5245 28.2823 12.2169 28.2823 10.8535C28.2823 6.36832 24.0413 3.4767 23.8614 3.36104ZM23.1417 13.4239C22.46 13.4239 21.8062 13.153 21.3242 12.671C20.8422 12.189 20.5714 11.5352 20.5714 10.8535C20.6594 9.92554 20.9322 9.02453 21.3736 8.2035C21.815 7.38248 22.4162 6.65802 23.1417 6.07273C23.8699 6.65552 24.4729 7.37937 24.9146 8.20089C25.3563 9.0224 25.6275 9.92465 25.712 10.8535C25.712 11.5352 25.4412 12.189 24.9592 12.671C24.4771 13.153 23.8234 13.4239 23.1417 13.4239Z" fill="white"/>
</svg>
