<svg width="34" height="35" viewBox="0 0 34 35" fill="none" xmlns="http://www.w3.org/2000/svg">
<path d="M10.724 23.7826L12.4173 29.043L17.6777 27.3497" stroke="white" stroke-width="2.31329" stroke-linecap="round" stroke-linejoin="round"/>
<path d="M7.42752 4.52433C6.11442 6.23437 5.80377 8.64638 6.49061 10.6314C7.09067 12.6443 8.75002 14.4221 10.8141 15.0451C12.8782 15.668 14.5375 17.4459 15.1376 19.4588C15.8244 21.4438 15.0924 23.8274 14.2007 25.5659L12.4171 29.0427" stroke="white" stroke-width="2.31329" stroke-linecap="round" stroke-linejoin="round"/>
<path d="M21.7762 23.7826L23.4695 29.043L28.7299 27.3497" stroke="white" stroke-width="2.31329" stroke-linecap="round" stroke-linejoin="round"/>
<path d="M18.4798 4.52433C17.1667 6.23437 16.856 8.64638 17.5429 10.6314C18.1429 12.6443 19.8023 14.4221 21.8663 15.0451C23.9304 15.668 25.5898 17.4459 26.1898 19.4588C26.8767 21.4438 26.1447 23.8274 25.2529 25.5659L23.4694 29.0427" stroke="white" stroke-width="2.31329" stroke-linecap="round" stroke-linejoin="round"/>
</svg>
