<svg width="97" height="59" viewBox="0 0 97 59" fill="none" xmlns="http://www.w3.org/2000/svg">
<path d="M85.8055 35.6143C85.7478 35.6143 85.6901 35.6143 85.6901 35.6143C86.5556 33.5363 87.075 31.2852 87.075 28.9186C87.075 19.5677 79.5158 12.0061 70.1678 12.0061C66.8786 12.0061 63.7626 12.9874 61.166 14.6036C57.646 6.00306 49.2213 0 39.354 0C26.3129 0 15.8108 10.5631 15.8108 23.5505C15.8108 24.5317 15.8685 25.513 15.9839 26.4365C15.9262 26.4365 15.8685 26.4365 15.8108 26.4365C7.09756 26.4365 0 33.5363 0 42.2523C0 50.9683 7.09756 58.068 15.8108 58.068H85.8055C91.9798 58.068 97 53.0462 97 46.87C97 40.6361 91.9798 35.6143 85.8055 35.6143Z" fill="white"/>
</svg>
