<svg width="34" height="34" viewBox="0 0 34 34" fill="none" xmlns="http://www.w3.org/2000/svg">
<path d="M6.04913 14.1821C5.69124 14.1821 5.34801 14.0399 5.09494 13.7868C4.84188 13.5338 4.69971 13.1905 4.69971 12.8327C4.69971 12.4748 4.84188 12.1315 5.09494 11.8785C5.34801 11.6254 5.69124 11.4832 6.04913 11.4832H16.8445C17.5603 11.4832 18.2467 11.1989 18.7528 10.6928C19.259 10.1866 19.5433 9.50017 19.5433 8.7844C19.5433 8.06862 19.259 7.38216 18.7528 6.87603C18.2467 6.3699 17.5603 6.08556 16.8445 6.08556C16.1023 6.08556 15.4276 6.38243 14.9418 6.88171C14.819 7.01277 14.6706 7.11724 14.5058 7.18866C14.341 7.26008 14.1633 7.29693 13.9837 7.29693C13.8041 7.29693 13.6264 7.26008 13.4616 7.18866C13.2968 7.11724 13.1484 7.01277 13.0256 6.88171C12.4994 6.35544 12.4994 5.49181 13.0256 4.96554C14.0107 3.99396 15.3601 3.38672 16.8445 3.38672C18.276 3.38672 19.649 3.9554 20.6612 4.96766C21.6735 5.97992 22.2422 7.35284 22.2422 8.7844C22.2422 10.2159 21.6735 11.5889 20.6612 12.6011C19.649 13.6134 18.276 14.1821 16.8445 14.1821H6.04913ZM26.2904 16.8809C26.6483 16.8809 26.9915 16.7387 27.2446 16.4857C27.4977 16.2326 27.6398 15.8894 27.6398 15.5315C27.6398 15.1736 27.4977 14.8304 27.2446 14.5773C26.9915 14.3242 26.6483 14.1821 26.2904 14.1821C25.9126 14.1821 25.5752 14.3305 25.3323 14.5734C25.2075 14.6985 25.0592 14.7977 24.896 14.8655C24.7327 14.9332 24.5577 14.968 24.381 14.968C24.2043 14.968 24.0293 14.9332 23.866 14.8655C23.7028 14.7977 23.5545 14.6985 23.4296 14.5734C22.9169 14.0471 22.9169 13.197 23.4296 12.6707C24.1583 11.942 25.1704 11.4832 26.2904 11.4832C27.3641 11.4832 28.3938 11.9097 29.153 12.6689C29.9122 13.4281 30.3387 14.4578 30.3387 15.5315C30.3387 16.6052 29.9122 17.6348 29.153 18.394C28.3938 19.1532 27.3641 19.5798 26.2904 19.5798H7.39855C7.04066 19.5798 6.69743 19.4376 6.44436 19.1845C6.1913 18.9314 6.04913 18.5882 6.04913 18.2303C6.04913 17.8724 6.1913 17.5292 6.44436 17.2761C6.69743 17.0231 7.04066 16.8809 7.39855 16.8809H26.2904ZM24.941 24.9774H6.04913C5.69124 24.9774 5.34801 24.8353 5.09494 24.5822C4.84188 24.3291 4.69971 23.9859 4.69971 23.628C4.69971 23.2701 4.84188 22.9269 5.09494 22.6738C5.34801 22.4208 5.69124 22.2786 6.04913 22.2786H24.941C26.0147 22.2786 27.0444 22.7051 27.8035 23.4643C28.5627 24.2235 28.9893 25.2532 28.9893 26.3268C28.9893 27.4005 28.5627 28.4302 27.8035 29.1894C27.0444 29.9486 26.0147 30.3751 24.941 30.3751C23.821 30.3751 22.8089 29.9163 22.0802 29.1876C21.5674 28.6613 21.5674 27.8112 22.0802 27.2849C22.2051 27.1598 22.3534 27.0606 22.5166 26.9929C22.6798 26.9252 22.8548 26.8903 23.0316 26.8903C23.2083 26.8903 23.3833 26.9252 23.5465 26.9929C23.7098 27.0606 23.8581 27.1598 23.9829 27.2849C24.2258 27.5278 24.5632 27.6763 24.941 27.6763C25.2989 27.6763 25.6421 27.5341 25.8952 27.281C26.1482 27.028 26.2904 26.6847 26.2904 26.3268C26.2904 25.969 26.1482 25.6257 25.8952 25.3727C25.6421 25.1196 25.2989 24.9774 24.941 24.9774Z" fill="white"/>
</svg>
