<svg width="34" height="33" viewBox="0 0 34 33" fill="none" xmlns="http://www.w3.org/2000/svg">
<path d="M6.04913 14.0512C5.69124 14.0512 5.34801 13.909 5.09494 13.656C4.84188 13.4029 4.69971 13.0597 4.69971 12.7018C4.69971 12.3439 4.84188 12.0007 5.09494 11.7476C5.34801 11.4945 5.69124 11.3524 6.04913 11.3524H16.8445C17.5603 11.3524 18.2467 11.068 18.7528 10.5619C19.259 10.0558 19.5433 9.36931 19.5433 8.65354C19.5433 7.93776 19.259 7.2513 18.7528 6.74517C18.2467 6.23904 17.5603 5.9547 16.8445 5.9547C16.1023 5.9547 15.4276 6.25157 14.9418 6.75086C14.819 6.88191 14.6706 6.98638 14.5058 7.0578C14.341 7.12922 14.1633 7.16607 13.9837 7.16607C13.8041 7.16607 13.6264 7.12922 13.4616 7.0578C13.2968 6.98638 13.1484 6.88191 13.0256 6.75086C12.4994 6.22458 12.4994 5.36095 13.0256 4.83468C14.0107 3.8631 15.3601 3.25586 16.8445 3.25586C18.276 3.25586 19.649 3.82454 20.6612 4.8368C21.6735 5.84906 22.2422 7.22198 22.2422 8.65354C22.2422 10.0851 21.6735 11.458 20.6612 12.4703C19.649 13.4825 18.276 14.0512 16.8445 14.0512H6.04913ZM26.2904 16.7501C26.6483 16.7501 26.9915 16.6079 27.2446 16.3548C27.4977 16.1018 27.6398 15.7585 27.6398 15.4006C27.6398 15.0427 27.4977 14.6995 27.2446 14.4464C26.9915 14.1934 26.6483 14.0512 26.2904 14.0512C25.9126 14.0512 25.5752 14.1996 25.3323 14.4425C25.2075 14.5676 25.0592 14.6669 24.896 14.7346C24.7327 14.8023 24.5577 14.8372 24.381 14.8372C24.2043 14.8372 24.0293 14.8023 23.866 14.7346C23.7028 14.6669 23.5545 14.5676 23.4296 14.4425C22.9169 13.9163 22.9169 13.0661 23.4296 12.5399C24.1583 11.8112 25.1704 11.3524 26.2904 11.3524C27.3641 11.3524 28.3938 11.7789 29.153 12.5381C29.9122 13.2973 30.3387 14.327 30.3387 15.4006C30.3387 16.4743 29.9122 17.504 29.153 18.2632C28.3938 19.0224 27.3641 19.4489 26.2904 19.4489H7.39855C7.04066 19.4489 6.69743 19.3067 6.44436 19.0537C6.1913 18.8006 6.04913 18.4574 6.04913 18.0995C6.04913 17.7416 6.1913 17.3984 6.44436 17.1453C6.69743 16.8922 7.04066 16.7501 7.39855 16.7501H26.2904ZM24.941 24.8466H6.04913C5.69124 24.8466 5.34801 24.7044 5.09494 24.4513C4.84188 24.1983 4.69971 23.855 4.69971 23.4971C4.69971 23.1393 4.84188 22.796 5.09494 22.543C5.34801 22.2899 5.69124 22.1477 6.04913 22.1477H24.941C26.0147 22.1477 27.0444 22.5742 27.8035 23.3334C28.5627 24.0926 28.9893 25.1223 28.9893 26.196C28.9893 27.2697 28.5627 28.2993 27.8035 29.0585C27.0444 29.8177 26.0147 30.2442 24.941 30.2442C23.821 30.2442 22.8089 29.7854 22.0802 29.0568C21.5674 28.5305 21.5674 27.6803 22.0802 27.1541C22.2051 27.029 22.3534 26.9297 22.5166 26.862C22.6798 26.7943 22.8548 26.7594 23.0316 26.7594C23.2083 26.7594 23.3833 26.7943 23.5465 26.862C23.7098 26.9297 23.8581 27.029 23.9829 27.1541C24.2258 27.397 24.5632 27.5454 24.941 27.5454C25.2989 27.5454 25.6421 27.4032 25.8952 27.1502C26.1482 26.8971 26.2904 26.5539 26.2904 26.196C26.2904 25.8381 26.1482 25.4949 25.8952 25.2418C25.6421 24.9887 25.2989 24.8466 24.941 24.8466Z" fill="black"/>
</svg>
